<?xml version="1.0" encoding="utf-8"?>
<!-- Generator: Adobe Illustrator 18.1.1, SVG Export Plug-In . SVG Version: 6.00 Build 0)  -->
<!DOCTYPE svg PUBLIC "-//W3C//DTD SVG 1.1//EN" "http://www.w3.org/Graphics/SVG/1.1/DTD/svg11.dtd">
<svg class="svg-icon" viewBox="0 0 20 20">
							<path fill="none" d="M14.584,1.617l-4.625,2.89L5.333,2.195L0.709,4.495v13.888l4.625-2.313l4.625,1.157l4.625-1.734l4.625,1.734
								V3.93L14.584,1.617z M18.053,15.492l-3.469-1.157l-4.625,1.734l-4.625-1.155l-3.468,1.734V5.086l3.468-1.734l4.625,2.312
								l4.625-2.891l3.469,1.734V15.492z M10.248,6.827c-0.16,0-0.29,0.163-0.29,0.363v6.781c0,0.201,0.129,0.363,0.29,0.363
								c0.16,0,0.289-0.162,0.289-0.363V7.19C10.537,6.99,10.408,6.827,10.248,6.827z M5.623,5.093c-0.16,0-0.29,0.163-0.29,0.363v7.938
								c0,0.201,0.129,0.363,0.29,0.363c0.16,0,0.289-0.162,0.289-0.363V5.456C5.912,5.256,5.783,5.093,5.623,5.093z M14.584,12.815
								c0,0.2,0.129,0.363,0.289,0.363s0.289-0.163,0.289-0.363V4.878c0-0.2-0.129-0.364-0.289-0.364s-0.289,0.164-0.289,0.364V12.815z"></path>
						</svg>